<?xml version="1.0" encoding="iso-8859-1"?>
<!-- Generator: Adobe Illustrator 19.0.0, SVG Export Plug-In . SVG Version: 6.00 Build 0)  -->
<svg version="1.1" id="Capa_1" xmlns="http://www.w3.org/2000/svg" xmlns:xlink="http://www.w3.org/1999/xlink" x="0px" y="0px"
	 viewBox="0 0 512 512" style="enable-background:new 0 0 512 512;" xml:space="preserve">
<circle style="fill:#323E40;" cx="76.149" cy="79.278" r="68.059"/>
<path style="fill:#283133;" d="M97.729,125.761c-37.589,0-68.062-30.473-68.062-68.062c0-13.269,3.81-25.642,10.378-36.109
	C20.857,33.626,8.092,54.954,8.092,79.274c0,37.589,30.473,68.062,68.062,68.062c24.32,0,45.649-12.766,57.684-31.953
	C123.369,121.951,110.997,125.761,97.729,125.761z"/>
<circle style="fill:#323E40;" cx="435.849" cy="79.278" r="68.059"/>
<path style="fill:#283133;" d="M471.957,21.589c6.566,10.468,10.378,22.84,10.378,36.109c0,37.589-30.473,68.062-68.062,68.062
	c-13.269,0-25.642-3.81-36.109-10.378c12.037,19.187,33.364,31.953,57.684,31.953c37.589,0,68.062-30.473,68.062-68.062
	C503.909,54.954,491.143,33.626,471.957,21.589z"/>
<path style="fill:#323E40;" d="M481.562,242.537c0,42.521-4.881,81.201-13.119,116.204c-4.534,19.264-18.012,35.175-36.177,43.028
	c-28.894,12.492-82.627,27.018-176.265,27.018S108.63,414.263,79.735,401.771c-18.166-7.853-31.643-23.764-36.177-43.028
	c-8.238-35.003-13.119-73.684-13.119-116.204h451.123V242.537z"/>
<path style="fill:#283133;" d="M122.886,401.771c-18.166-7.853-31.643-23.764-36.177-43.028
	C78.471,323.739,73.59,285.06,73.59,242.538H30.44c0,42.521,4.881,81.201,13.119,116.204c4.534,19.264,18.012,35.175,36.177,43.028
	c28.894,12.492,82.627,27.018,176.265,27.018c7.451,0,14.621-0.101,21.575-0.277C197.146,426.481,149.482,413.268,122.886,401.771z"
	/>
<g>
	<path style="fill:#FFC4B1;" d="M157.068,406.127c-11.392,7.044-51.262,35.858-51.262,94.661h51.262l25.556-47.33L157.068,406.127z"
		/>
	<path style="fill:#FFC4B1;" d="M354.934,406.127L354.934,406.127L354.934,406.127L354.934,406.127L354.934,406.127l-25.556,47.33
		l25.556,47.33l0,0h51.262C406.195,441.985,366.325,413.171,354.934,406.127z"/>
</g>
<g>
	<path style="fill:#E6B09F;" d="M354.932,406.127L354.932,406.127L354.932,406.127l-18.976,35.144
		c13.631-5.137,26.612-11.54,38.777-19.071C366.586,413.869,358.97,408.623,354.932,406.127L354.932,406.127L354.932,406.127z"/>
	<path style="fill:#E6B09F;" d="M176.044,441.271l-18.976-35.144c-4.037,2.496-11.653,7.742-19.801,16.072
		C149.432,429.73,162.413,436.133,176.044,441.271z"/>
</g>
<path style="fill:#FF9DC7;" d="M354.932,406.127v94.661H157.068v-94.661c1.899-1.165,3.01-1.737,3.01-1.737h191.845
	C351.923,404.39,353.034,404.962,354.932,406.127z"/>
<path style="fill:#E670A9;" d="M160.077,404.39c0,0-1.111,0.572-3.01,1.737v26.968c29.775,14.488,63.382,22.664,98.932,22.664
	c35.55,0,69.157-8.175,98.932-22.662v-26.969c-1.899-1.165-3.01-1.737-3.01-1.737H160.077z"/>
<circle style="fill:#FFC4B1;" cx="255.999" cy="418.006" r="49.655"/>
<path style="fill:#323E40;" d="M30.439,242.537c0-119.77,100.987-216.862,225.562-216.862s225.562,97.092,225.562,216.862H30.439z"
	/>
<path style="fill:#283133;" d="M277.575,26.668c-7.103-0.648-14.297-0.992-21.575-0.992c-124.574,0-225.562,97.092-225.562,216.862
	h43.15C73.589,129.765,163.124,37.111,277.575,26.668z"/>
<g>
	<circle style="fill:#E6B09F;" cx="449.721" cy="242.536" r="48.565"/>
	<path style="fill:#E6B09F;" d="M291.192,453.025c8.935-8.978,14.46-21.354,14.46-35.023c0-4.723-0.673-9.285-1.905-13.612h-95.493
		c-1.232,4.327-1.905,8.889-1.905,13.612c0,13.668,5.524,26.044,14.46,35.023c11.465,1.784,23.215,2.734,35.192,2.734
		C267.978,455.758,279.728,454.809,291.192,453.025z"/>
</g>
<path style="fill:#FFC4B1;" d="M443.184,194.424c-122.7,0-187.184-82.787-187.184-82.787s-64.484,82.787-187.183,82.787
	c-4.258,15.35-6.539,31.474-6.539,48.113c0,102.865,86.733,186.252,193.724,186.252s193.724-83.388,193.724-186.252
	C449.724,225.898,447.442,209.773,443.184,194.424L443.184,194.424z"/>
<path style="fill:#E6B09F;" d="M103.27,232.82c0-14.155,1.516-27.947,4.338-41.249c-12.205,1.822-25.134,2.853-38.79,2.853
	c-2.14-0.288-4.32-0.451-6.54-0.451c-26.821,0-48.564,21.743-48.564,48.564s21.742,48.564,48.563,48.564
	c2.219,0,4.399-0.163,6.539-0.451c22.063,79.541,97.5,138.139,187.184,138.139c7.007,0,13.922-0.367,20.736-1.064
	C179.267,417.48,103.27,334.131,103.27,232.82z"/>
<path d="M169.815,226.736c-4.468,0-8.091,3.622-8.091,8.091v15.598c0,4.468,3.622,8.091,8.091,8.091
	c4.468,0,8.091-3.622,8.091-8.091v-15.598C177.906,230.358,174.283,226.736,169.815,226.736z"/>
<path d="M342.185,258.515c4.468,0,8.091-3.622,8.091-8.091v-15.598c0-4.468-3.622-8.091-8.091-8.091s-8.091,3.622-8.091,8.091
	v15.598C334.094,254.892,337.717,258.515,342.185,258.515z"/>
<path d="M256,270.042c12.52,0,24.267-5.222,32.227-14.329c2.941-3.365,2.598-8.475-0.766-11.416
	c-3.365-2.942-8.476-2.599-11.416,0.766c-4.888,5.591-12.193,8.797-20.044,8.797c-7.851,0-15.156-3.207-20.044-8.797
	c-2.941-3.365-8.052-3.708-11.416-0.767c-3.365,2.941-3.708,8.052-0.767,11.416C231.732,264.819,243.479,270.042,256,270.042z"/>
<path d="M512,79.274c0-41.99-34.162-76.152-76.152-76.152c-28.926,0-55.181,16.492-67.995,41.867
	C334.443,27.453,296.247,17.585,256,17.585c-18.18,0-36.322,2.03-53.924,6.036c-4.357,0.991-7.085,5.327-6.094,9.684
	c0.991,4.357,5.325,7.084,9.684,6.094c16.425-3.737,33.36-5.632,50.334-5.632c40.296,0,78.38,10.588,111.086,29.232
	c0.198,0.14,0.406,0.272,0.619,0.395c35.122,20.231,63.513,49.412,82.105,84.388c0.15,0.283,0.324,0.546,0.502,0.804
	c6.56,12.516,11.866,25.789,15.738,39.687c-1.562-0.47-3.148-0.863-4.749-1.196c-7.941-1.649-15.916-0.627-24.041-0.813
	c-22.093-0.507-44.153-3.919-65.329-10.252c-24.364-7.286-47.848-18.51-68.844-33.078c-26.58-18.446-40.535-36.054-40.702-36.267
	c-3.207-4.092-9.555-4.099-12.76-0.009c-0.004,0.006-0.025,0.032-0.06,0.077c-12.562,15.725-29.391,28.946-46.138,39.899
	c-28.16,18.414-60.361,30.857-93.551,36.346c-17.741,2.934-35.698,1.364-53.52,3.215c-3.511,0.365-7.004,1.057-10.385,2.073
	c4.227-15.071,10.244-29.652,17.864-43.447c11.076-20.048,25.523-38.247,42.451-53.668c0.067-0.06,0.133-0.123,0.2-0.184
	c19.754-18.043,43.027-32.323,67.957-42.011c4.165-1.618,6.229-6.307,4.61-10.473c-1.618-4.164-6.307-6.229-10.473-4.61
	c-8.364,3.251-16.507,6.991-24.41,11.153C131.361,19.63,105.092,3.122,76.152,3.122C34.162,3.122,0,37.284,0,79.274
	c0,29.914,17.287,56.58,43.857,68.973c-7.67,15.972-13.371,32.795-16.955,50.082c-12.96,10.392-21.281,26.342-21.281,44.207
	c0,16.474,7.072,31.323,18.334,41.684c2.005,26.08,5.932,51.76,11.726,76.374c5.077,21.572,20.345,39.74,40.843,48.602
	c13.755,5.946,29.843,11.014,47.953,15.125c-13.771,16.73-26.763,41.719-26.763,76.465c0,4.468,3.622,8.091,8.091,8.091h51.262
	h197.865h51.262c4.468,0,8.091-3.622,8.091-8.091c0-34.748-12.991-59.736-26.763-76.466c18.111-4.11,34.198-9.178,47.953-15.124
	c20.497-8.862,35.766-27.03,40.843-48.602c5.793-24.615,9.721-50.296,11.726-76.374c11.262-10.361,18.336-25.21,18.336-41.685
	c0-17.857-8.313-33.801-21.262-44.192c-3.64-17.603-9.362-34.387-16.901-50.132C494.743,135.803,512,109.161,512,79.274z
	 M51.376,133.896c-21.296-9.624-35.194-30.817-35.194-54.622c0-33.068,26.903-59.971,59.971-59.971
	c23.067,0,43.984,13.314,53.93,33.727c-26.942,16.618-49.943,38.276-67.741,63.643c-0.019,0.028-0.039,0.056-0.058,0.084
	C58.408,122.308,54.743,128.024,51.376,133.896z M83.197,307.63c-9.152-22.259-13.503-46.478-12.739-70.529
	c0.368-11.6,1.892-23.208,4.604-34.494c0.013-0.055,0.029-0.109,0.042-0.164c3.923-0.09,7.785-0.264,11.586-0.513
	c27.028-1.778,53.781-7.725,78.977-17.679c16.507-6.521,32.371-14.704,47.201-24.461c21.1-13.882,35.509-27.728,43.132-35.876
	c7.622,8.148,22.032,21.995,43.133,35.876c19.823,13.042,41.488,23.304,64.106,30.472c15.626,4.951,32.076,8.484,48.481,10.411
	c8.361,0.98,16.761,1.578,25.177,1.771c0.413,1.724,0.799,3.454,1.159,5.19c5.434,26.235,4.679,53.859-2.374,79.72
	C414.004,366.833,337.38,420.7,255.999,420.7C182.163,420.699,111.533,376.54,83.197,307.63z M294.682,433.303
	c-6.079,15.55-21.123,26.26-38.683,26.26s-32.604-10.71-38.682-26.26c0.645,0.121,1.295,0.224,1.942,0.34
	c12.118,2.15,24.433,3.237,36.74,3.237C268.926,436.88,281.973,435.677,294.682,433.303z M21.803,242.537
	c0-20.552,16.265-38.412,36.74-40.285c-0.101,0.462-0.187,0.927-0.285,1.389c-2.667,12.643-4.072,25.864-4.072,38.897
	c0,13.277,1.413,26.591,4.21,39.572c0.052,0.243,0.097,0.488,0.15,0.73c-0.017-0.001-0.033-0.003-0.051-0.005
	C37.944,280.922,21.803,263.579,21.803,242.537z M51.433,356.888c-4.704-19.99-8.153-40.715-10.287-61.796
	c0.043,0.017,0.087,0.031,0.131,0.049c4.168,1.677,8.56,2.841,13.008,3.477c2.782,0.397,5.577,0.567,8.386,0.567
	c0.081,0,0.162,0.004,0.243,0.003c3.444,10.876,7.893,21.407,13.244,31.476c15.914,29.951,39.97,55.765,68.672,74.079
	c-1.768,1.34-3.493,2.737-5.186,4.17c-0.065,0.055-1.352,1.162-1.943,1.686c-21.139-4.217-39.544-9.68-54.755-16.256
	C67.123,387.504,55.343,373.502,51.433,356.888z M145.464,425.428c0.095-0.082,0.193-0.159,0.285-0.246
	c1.098-1.045,2.176-2.023,3.228-2.943v70.458h-34.806C116.431,459.894,132.173,438.151,145.464,425.428z M165.158,416.114
	c8.067,3.917,16.401,7.28,24.927,10.111c3.065,1.017,6.132,1.961,9.237,2.843c5.174,26.976,28.613,46.678,56.678,46.678
	s51.504-19.701,56.678-46.678c0.172-0.049,6.291-1.86,9.149-2.811c8.556-2.837,16.92-6.21,25.014-10.14v76.583H165.157v-76.585
	H165.158z M363.023,492.696v-70.457c1.052,0.92,2.128,1.898,3.228,2.943c0.093,0.088,0.192,0.165,0.288,0.248
	c13.29,12.723,29.03,34.465,31.29,67.266L363.023,492.696z M470.853,295.092c-2.134,21.081-5.581,41.805-10.287,61.796
	c-3.91,16.614-15.69,30.616-31.513,37.457c-15.21,6.575-33.615,12.038-54.755,16.256c-2.126-1.886-4.331-3.709-6.588-5.438
	c-0.179-0.137-0.365-0.285-0.542-0.419c15.322-9.777,29.134-21.529,41.095-34.794c18.369-20.372,32.532-44.59,40.822-70.761
	c0.084,0.001,0.168-0.003,0.254-0.003c1.01,0.006,2.016-0.013,3.025-0.06c4.825-0.224,9.626-1.072,14.236-2.516
	c1.396-0.437,2.769-0.937,4.131-1.471C470.771,295.121,470.813,295.108,470.853,295.092z M490.197,242.537
	c0,21.042-16.14,38.384-36.692,40.297c-0.017,0.001-0.035,0.004-0.052,0.005c0.054-0.244,0.098-0.49,0.151-0.735
	c2.784-12.993,4.209-26.28,4.209-39.568c0-13.045-1.38-26.108-4.067-38.872c-0.099-0.47-0.187-0.943-0.29-1.413
	c6.962,0.636,13.702,3.108,19.431,7.119C483.344,216.696,490.197,228.829,490.197,242.537z M435.847,19.303
	c33.068,0,59.971,26.903,59.971,59.971c0,23.783-13.873,44.958-35.135,54.595c-18.93-33.054-46.144-60.785-78.753-80.864
	C391.881,32.606,412.789,19.303,435.847,19.303z"/>
<g>
</g>
<g>
</g>
<g>
</g>
<g>
</g>
<g>
</g>
<g>
</g>
<g>
</g>
<g>
</g>
<g>
</g>
<g>
</g>
<g>
</g>
<g>
</g>
<g>
</g>
<g>
</g>
<g>
</g>
</svg>
